<mxfile host="app.diagrams.net" modified="2023-09-17T15:32:51.144Z" agent="Mozilla/5.0 (Windows NT 10.0; Win64; x64) AppleWebKit/537.36 (KHTML, like Gecko) Chrome/116.0.0.0 Safari/537.36" etag="OpYRrVHa7corQXsHFemY" version="21.7.2" type="device">
  <diagram name="Page-1" id="-zw-Uy-x67g7zmwTA-9F">
    <mxGraphModel dx="2074" dy="1142" grid="1" gridSize="10" guides="1" tooltips="1" connect="1" arrows="1" fold="1" page="1" pageScale="1" pageWidth="850" pageHeight="1100" math="0" shadow="0">
      <root>
        <mxCell id="0" />
        <mxCell id="1" parent="0" />
        <mxCell id="cCWhgf2ZMlDKmwn7Sb01-1" value="User" style="swimlane;childLayout=stackLayout;horizontal=1;startSize=50;horizontalStack=0;rounded=1;fontSize=14;fontStyle=0;strokeWidth=2;resizeParent=0;resizeLast=1;shadow=0;dashed=0;align=center;arcSize=4;whiteSpace=wrap;html=1;fillColor=default;" parent="1" vertex="1">
          <mxGeometry x="60" y="100" width="160" height="140" as="geometry" />
        </mxCell>
        <mxCell id="cCWhgf2ZMlDKmwn7Sb01-2" value="id: string (cuid)&lt;br&gt;socialId: string&lt;br&gt;socialType: enum&lt;br&gt;createdAt: Datetime&lt;br&gt;LastModifiedAt: Datetime" style="align=left;strokeColor=none;fillColor=none;spacingLeft=4;fontSize=12;verticalAlign=top;resizable=0;rotatable=0;part=1;html=1;" parent="cCWhgf2ZMlDKmwn7Sb01-1" vertex="1">
          <mxGeometry y="50" width="160" height="90" as="geometry" />
        </mxCell>
        <mxCell id="cCWhgf2ZMlDKmwn7Sb01-3" value="Roles" style="swimlane;childLayout=stackLayout;horizontal=1;startSize=50;horizontalStack=0;rounded=1;fontSize=14;fontStyle=0;strokeWidth=2;resizeParent=0;resizeLast=1;shadow=0;dashed=0;align=center;arcSize=4;whiteSpace=wrap;html=1;" parent="1" vertex="1">
          <mxGeometry x="510" y="100" width="160" height="120" as="geometry" />
        </mxCell>
        <mxCell id="cCWhgf2ZMlDKmwn7Sb01-4" value="id: string (cuid)&lt;br&gt;name: string&lt;br&gt;createdAt: Datetime&lt;br style=&quot;border-color: var(--border-color);&quot;&gt;LastModifiedAt: Datetime" style="align=left;strokeColor=none;fillColor=none;spacingLeft=4;fontSize=12;verticalAlign=top;resizable=0;rotatable=0;part=1;html=1;" parent="cCWhgf2ZMlDKmwn7Sb01-3" vertex="1">
          <mxGeometry y="50" width="160" height="70" as="geometry" />
        </mxCell>
        <mxCell id="cCWhgf2ZMlDKmwn7Sb01-5" value="Permission" style="swimlane;childLayout=stackLayout;horizontal=1;startSize=50;horizontalStack=0;rounded=1;fontSize=14;fontStyle=0;strokeWidth=2;resizeParent=0;resizeLast=1;shadow=0;dashed=0;align=center;arcSize=4;whiteSpace=wrap;html=1;" parent="1" vertex="1">
          <mxGeometry x="510" y="460" width="160" height="120" as="geometry" />
        </mxCell>
        <mxCell id="cCWhgf2ZMlDKmwn7Sb01-6" value="id: String (cuid)&lt;br&gt;name: string&lt;br&gt;createdAt: Datetime&lt;br style=&quot;border-color: var(--border-color);&quot;&gt;LastModifiedAt: Datetime" style="align=left;strokeColor=none;fillColor=none;spacingLeft=4;fontSize=12;verticalAlign=top;resizable=0;rotatable=0;part=1;html=1;" parent="cCWhgf2ZMlDKmwn7Sb01-5" vertex="1">
          <mxGeometry y="50" width="160" height="70" as="geometry" />
        </mxCell>
        <mxCell id="cCWhgf2ZMlDKmwn7Sb01-7" value="UserRole" style="swimlane;childLayout=stackLayout;horizontal=1;startSize=50;horizontalStack=0;rounded=1;fontSize=14;fontStyle=0;strokeWidth=2;resizeParent=0;resizeLast=1;shadow=0;dashed=0;align=center;arcSize=4;whiteSpace=wrap;html=1;" parent="1" vertex="1">
          <mxGeometry x="290" y="100" width="160" height="140" as="geometry" />
        </mxCell>
        <mxCell id="cCWhgf2ZMlDKmwn7Sb01-8" value="id: string (cuid)&lt;br&gt;userId: fk(User)&lt;br&gt;roleId: fk(Role)&lt;br&gt;createdAt: Datetime&lt;br style=&quot;border-color: var(--border-color);&quot;&gt;LastModifiedAt: Datetime" style="align=left;strokeColor=none;fillColor=none;spacingLeft=4;fontSize=12;verticalAlign=top;resizable=0;rotatable=0;part=1;html=1;" parent="cCWhgf2ZMlDKmwn7Sb01-7" vertex="1">
          <mxGeometry y="50" width="160" height="90" as="geometry" />
        </mxCell>
        <mxCell id="cCWhgf2ZMlDKmwn7Sb01-9" value="RolePermission" style="swimlane;childLayout=stackLayout;horizontal=1;startSize=50;horizontalStack=0;rounded=1;fontSize=14;fontStyle=0;strokeWidth=2;resizeParent=0;resizeLast=1;shadow=0;dashed=0;align=center;arcSize=4;whiteSpace=wrap;html=1;" parent="1" vertex="1">
          <mxGeometry x="510" y="280" width="160" height="140" as="geometry" />
        </mxCell>
        <mxCell id="cCWhgf2ZMlDKmwn7Sb01-10" value="id: string (cuid)&lt;br&gt;permissionId: fk(Permission)&lt;br&gt;roleId: fk(Role)&lt;br&gt;createdAt: Datetime&lt;br style=&quot;border-color: var(--border-color);&quot;&gt;LastModifiedAt: Datetime" style="align=left;strokeColor=none;fillColor=none;spacingLeft=4;fontSize=12;verticalAlign=top;resizable=0;rotatable=0;part=1;html=1;" parent="cCWhgf2ZMlDKmwn7Sb01-9" vertex="1">
          <mxGeometry y="50" width="160" height="90" as="geometry" />
        </mxCell>
        <mxCell id="cCWhgf2ZMlDKmwn7Sb01-11" value="" style="edgeStyle=entityRelationEdgeStyle;fontSize=12;html=1;endArrow=ERmany;startArrow=ERone;rounded=0;exitX=1.006;exitY=0.143;exitDx=0;exitDy=0;exitPerimeter=0;entryX=0;entryY=0.25;entryDx=0;entryDy=0;startFill=0;" parent="1" source="cCWhgf2ZMlDKmwn7Sb01-2" target="cCWhgf2ZMlDKmwn7Sb01-8" edge="1">
          <mxGeometry width="100" height="100" relative="1" as="geometry">
            <mxPoint x="370" y="630" as="sourcePoint" />
            <mxPoint x="470" y="530" as="targetPoint" />
          </mxGeometry>
        </mxCell>
        <mxCell id="cCWhgf2ZMlDKmwn7Sb01-13" value="" style="edgeStyle=entityRelationEdgeStyle;fontSize=12;html=1;endArrow=ERone;startArrow=ERmany;rounded=0;exitX=1;exitY=0;exitDx=0;exitDy=0;entryX=0;entryY=0.25;entryDx=0;entryDy=0;endFill=0;" parent="1" source="cCWhgf2ZMlDKmwn7Sb01-8" target="cCWhgf2ZMlDKmwn7Sb01-4" edge="1">
          <mxGeometry width="100" height="100" relative="1" as="geometry">
            <mxPoint x="231" y="170" as="sourcePoint" />
            <mxPoint x="290" y="178" as="targetPoint" />
            <Array as="points">
              <mxPoint x="490" y="170" />
            </Array>
          </mxGeometry>
        </mxCell>
        <mxCell id="cCWhgf2ZMlDKmwn7Sb01-14" value="" style="edgeStyle=entityRelationEdgeStyle;fontSize=12;html=1;endArrow=ERmany;startArrow=ERone;rounded=0;exitX=1;exitY=0.25;exitDx=0;exitDy=0;entryX=1;entryY=0.5;entryDx=0;entryDy=0;startFill=0;" parent="1" source="cCWhgf2ZMlDKmwn7Sb01-10" target="cCWhgf2ZMlDKmwn7Sb01-4" edge="1">
          <mxGeometry width="100" height="100" relative="1" as="geometry">
            <mxPoint x="450" y="160" as="sourcePoint" />
            <mxPoint x="520" y="178" as="targetPoint" />
            <Array as="points">
              <mxPoint x="690" y="330" />
              <mxPoint x="500" y="180" />
              <mxPoint x="600" y="260" />
              <mxPoint x="550" y="230" />
            </Array>
          </mxGeometry>
        </mxCell>
        <mxCell id="cCWhgf2ZMlDKmwn7Sb01-18" value="" style="edgeStyle=entityRelationEdgeStyle;fontSize=12;html=1;endArrow=ERone;startArrow=ERmany;rounded=0;exitX=1;exitY=0;exitDx=0;exitDy=0;entryX=1;entryY=0.5;entryDx=0;entryDy=0;endFill=0;" parent="1" source="cCWhgf2ZMlDKmwn7Sb01-6" target="cCWhgf2ZMlDKmwn7Sb01-10" edge="1">
          <mxGeometry width="100" height="100" relative="1" as="geometry">
            <mxPoint x="370" y="630" as="sourcePoint" />
            <mxPoint x="470" y="530" as="targetPoint" />
          </mxGeometry>
        </mxCell>
      </root>
    </mxGraphModel>
  </diagram>
</mxfile>
